<svg width="48" height="48" viewBox="0 0 48 48" fill="none" xmlns="http://www.w3.org/2000/svg">
<mask id="mask0" mask-type="alpha" maskUnits="userSpaceOnUse" x="0" y="0" width="48" height="48">
<path d="M48 24C48 37.2548 37.2548 48 24 48C10.7452 48 0 37.2548 0 24C0 10.7452 10.7452 0 24 0C37.2548 0 48 10.7452 48 24Z" fill="#E8EFFF"/>
</mask>
<g mask="url(#mask0)">
<path d="M48 24C48 37.2548 37.2548 48 24 48C10.7452 48 0 37.2548 0 24C0 10.7452 10.7452 0 24 0C37.2548 0 48 10.7452 48 24Z" fill="#E8EFFF"/>
<rect width="29" height="18.3902" rx="5" transform="matrix(-1 0 0 1 63 26)" fill="#A9BCE9"/>
<path d="M34 30.2439H63V28.8132C63 27.2595 61.6077 26 59.8903 26H37.1097C35.3923 26 34 27.2595 34 28.8132V30.2439Z" fill="#8397CC"/>
<rect x="37" y="32" width="5" height="1" rx="0.5" fill="#8397CC"/>
<rect x="37" y="34" width="1" height="1" rx="0.5" fill="white"/>
<rect x="40" y="34" width="6" height="1" rx="0.5" fill="#8397CC"/>
<rect x="43" y="32" width="8" height="1" rx="0.5" fill="white"/>
<rect x="37" y="36" width="11" height="1" rx="0.5" fill="white"/>
<rect x="37" y="40" width="2" height="1" rx="0.5" fill="white"/>
<rect x="37" y="38" width="5" height="1" rx="0.5" fill="#8397CC"/>
<rect x="40" y="40" width="6" height="1" rx="0.5" fill="#8397CC"/>
<rect x="42.812" y="40.1463" width="0.854675" height="0.854675" rx="0.427337" fill="white"/>
<circle r="0.707317" transform="matrix(-1 0 0 1 38.2439 28.122)" fill="white"/>
<circle r="0.707317" transform="matrix(-1 0 0 1 38.2439 28.122)" fill="white"/>
<circle r="0.707317" transform="matrix(-1 0 0 1 44.6098 28.122)" fill="white"/>
<circle r="0.707317" transform="matrix(-1 0 0 1 44.6098 28.122)" fill="white"/>
<circle r="0.707317" transform="matrix(-1 0 0 1 41.7805 28.122)" fill="white"/>
<circle r="0.707317" transform="matrix(-1 0 0 1 41.7805 28.122)" fill="white"/>
<rect y="11" width="31" height="42" rx="4" fill="#506FFF"/>
<path fill-rule="evenodd" clip-rule="evenodd" d="M4 11C1.79086 11 0 12.7909 0 15V16H31V15C31 12.7909 29.2091 11 27 11H4Z" fill="#6A84FF"/>
<rect x="5" y="23" width="19" height="12" rx="1" fill="#6F89FF"/>
<rect x="7.1" y="20.1" width="18.8" height="12.8" rx="0.9" stroke="white" stroke-width="0.2"/>
<circle cx="30" cy="15" r="10" fill="#48C5A1"/>
<rect x="11" y="38" width="15" height="1.73611" rx="0.868056" fill="white"/>
<rect x="16" y="41.4722" width="10" height="1.73611" rx="0.868056" fill="#A7B7FF"/>
<path fill-rule="evenodd" clip-rule="evenodd" d="M26 16.2857C26.7101 16.2857 27.2857 15.7101 27.2857 15C27.2857 14.2899 26.7101 13.7143 26 13.7143C25.2899 13.7143 24.7143 14.2899 24.7143 15C24.7143 15.7101 25.2899 16.2857 26 16.2857ZM26 18C27.6569 18 29 16.6569 29 15C29 13.3431 27.6569 12 26 12C24.3431 12 23 13.3431 23 15C23 16.6569 24.3431 18 26 18Z" fill="white"/>
<path fill-rule="evenodd" clip-rule="evenodd" d="M28 15C28 14.4477 28.4029 14 28.9 14H36.1C36.5971 14 37 14.4477 37 15C37 15.5523 36.5971 16 36.1 16H28.9C28.4029 16 28 15.5523 28 15Z" fill="white"/>
<path fill-rule="evenodd" clip-rule="evenodd" d="M34 15C34.5523 15 35 15.3358 35 15.75V17.25C35 17.6642 34.5523 18 34 18C33.4477 18 33 17.6642 33 17.25V15.75C33 15.3358 33.4477 15 34 15Z" fill="white"/>
</g>
</svg>
