<svg width="48" height="48" viewBox="0 0 48 48" fill="none" xmlns="http://www.w3.org/2000/svg">
<mask id="mask0" mask-type="alpha" maskUnits="userSpaceOnUse" x="0" y="0" width="48" height="48">
<path d="M48 24C48 37.2548 37.2548 48 24 48C10.7452 48 0 37.2548 0 24C0 10.7452 10.7452 0 24 0C37.2548 0 48 10.7452 48 24Z" fill="#E8EFFF"/>
</mask>
<g mask="url(#mask0)">
<path d="M48 24C48 37.2548 37.2548 48 24 48C10.7452 48 0 37.2548 0 24C0 10.7452 10.7452 0 24 0C37.2548 0 48 10.7452 48 24Z" fill="#E8EFFF"/>
<rect x="14" y="29" width="28" height="31" rx="5" fill="#B7C8EC"/>
<rect x="6" y="12.0345" width="32" height="43" rx="4" fill="#506FFF"/>
<path fill-rule="evenodd" clip-rule="evenodd" d="M38 49.5172V16C38 13.7909 36.2091 12 34 12H10C7.79086 12 6 13.7909 6 16V49.1862L9.31034 52.8276V21.3793H10.931C13.6925 21.3793 15.931 19.1407 15.931 16.3793V15.8621H26.9655V16.3793C26.9655 19.1407 29.2041 21.3793 31.9655 21.3793H34.6897V49.5172H38Z" fill="#3146CC"/>
<path d="M28.6534 28.0365C28.6582 27.5363 28.2567 27.127 27.7565 27.1222L15.9842 27.0087C15.4841 27.0039 15.0748 27.4054 15.0699 27.9056C15.0651 28.4057 15.4667 28.815 15.9668 28.8199L27.7391 28.9333C28.2392 28.9381 28.6486 28.5366 28.6534 28.0365Z" fill="white"/>
<path d="M23.1588 33.9841C23.1636 33.484 22.7621 33.0746 22.2619 33.0698L15.923 33.0087C15.4229 33.0039 15.0135 33.4054 15.0087 33.9056C15.0039 34.4057 15.4054 34.815 15.9056 34.8198L22.2445 34.8809C22.7446 34.8857 23.154 34.4842 23.1588 33.9841Z" fill="#A7B7FF"/>
<circle cx="26" cy="34" r="1" fill="white"/>
<rect x="15" y="40" width="4" height="2" rx="1" fill="white"/>
<rect x="15" y="40" width="4" height="2" rx="1" fill="white"/>
<rect x="20" y="40" width="10" height="2" rx="1" fill="#A7B7FF"/>
<circle cx="32" cy="15" r="9" fill="#F4A42B"/>
<path d="M29.6584 14.1409C29.4601 13.7772 29.0045 13.6432 28.6409 13.8416C28.2772 14.0399 28.1432 14.4955 28.3416 14.8591L29.6584 14.1409ZM30.5 17L29.9 17.45C30.0305 17.6239 30.23 17.7327 30.4468 17.7481C30.6637 17.7635 30.8766 17.6841 31.0303 17.5303L30.5 17ZM35.5303 13.0303C35.8232 12.7374 35.8232 12.2626 35.5303 11.9697C35.2374 11.6768 34.7626 11.6768 34.4697 11.9697L35.5303 13.0303ZM29 14.5C28.3416 14.8591 28.3416 14.8592 28.3416 14.8592C28.3416 14.8592 28.3416 14.8593 28.3417 14.8593C28.3417 14.8594 28.3418 14.8595 28.3418 14.8596C28.342 14.8599 28.3422 14.8603 28.3425 14.8608C28.343 14.8618 28.3438 14.8632 28.3448 14.865C28.3468 14.8687 28.3498 14.8741 28.3536 14.8811C28.3613 14.8952 28.3725 14.9156 28.387 14.9418C28.4158 14.9942 28.4574 15.0695 28.5089 15.1619C28.6117 15.3465 28.7542 15.5999 28.9129 15.8748C29.2216 16.4099 29.6184 17.0745 29.9 17.45L31.1 16.55C30.8816 16.2588 30.5284 15.6735 30.2121 15.1252C30.0583 14.8585 29.9195 14.6119 29.8192 14.4318C29.7691 14.3419 29.7287 14.2688 29.7009 14.2183C29.687 14.1931 29.6763 14.1735 29.6691 14.1604C29.6655 14.1538 29.6628 14.1488 29.661 14.1455C29.6601 14.1439 29.6594 14.1427 29.659 14.1419C29.6588 14.1415 29.6586 14.1412 29.6585 14.141C29.6585 14.141 29.6584 14.1409 29.6584 14.1409C29.6584 14.1409 29.6584 14.1409 29.6584 14.1408C29.6584 14.1408 29.6584 14.1409 29 14.5ZM31.0303 17.5303L35.5303 13.0303L34.4697 11.9697L29.9697 16.4697L31.0303 17.5303Z" fill="white"/>
<circle cx="31" cy="13" r="8.85" stroke="white" stroke-width="0.3"/>
</g>
</svg>
