<svg width="48" height="48" viewBox="0 0 48 48" fill="none" xmlns="http://www.w3.org/2000/svg">
<mask id="mask0" mask-type="alpha" maskUnits="userSpaceOnUse" x="0" y="0" width="48" height="48">
<path d="M48 24C48 37.2548 37.2548 48 24 48C10.7452 48 0 37.2548 0 24C0 10.7452 10.7452 0 24 0C37.2548 0 48 10.7452 48 24Z" fill="#E8EFFF"/>
</mask>
<g mask="url(#mask0)">
<path d="M48 24C48 37.2548 37.2548 48 24 48C10.7452 48 0 37.2548 0 24C0 10.7452 10.7452 0 24 0C37.2548 0 48 10.7452 48 24Z" fill="#E8EFFF"/>
<path d="M3.5 16C3.5 14.8954 4.39543 14 5.5 14H14.228C15.8954 14 17.3879 15.0343 17.9733 16.5955L18.2567 17.3511C18.403 17.7414 18.7762 18 19.193 18H31C33.2091 18 35 19.7909 35 22V38C35 39.6569 33.6569 41 32 41H5.5C4.39543 41 3.5 40.1046 3.5 39V16Z" fill="#3146CC"/>
<path d="M37.5276 19.6296L39.2855 13.8929L42.3082 21.0945L37.5276 19.6296Z" fill="#94A8D4"/>
<path d="M24.3577 11.4104C24.6814 10.3543 25.7998 9.76054 26.8559 10.0842L39.2855 13.8929L37.6741 19.1515C37.5932 19.4155 37.7417 19.6952 38.0057 19.7761L42.3082 21.0945L37.0346 38.3046C36.711 39.3607 35.5925 39.9545 34.5364 39.6309L19.2385 34.9433C18.1824 34.6196 17.5886 33.5012 17.9122 32.4451L24.3577 11.4104Z" fill="#B7C8EC"/>
<rect x="23.7169" y="7.18736" width="19.7" height="25.7" rx="1.85" transform="rotate(17.0363 23.7169 7.18736)" stroke="white" stroke-width="0.3"/>
<path fill-rule="evenodd" clip-rule="evenodd" d="M2 16C0.895431 16 0 16.8954 0 18V39C0 40.1046 0.895431 41 2 41H32L31.9939 40.9487C30.8558 40.7148 30 39.7073 30 38.5V24.2L29.9199 23.5271C29.6804 21.5151 27.9742 20 25.9479 20H15.7808C15.3219 20 14.9219 19.6877 14.8106 19.2425L14.7575 19.0299C14.3123 17.2492 12.7124 16 10.8769 16H2Z" fill="#506FFF"/>
<rect x="5" y="28" width="12.1528" height="1.73611" rx="0.868056" fill="white"/>
<rect x="5" y="33.4722" width="8.68056" height="1.73611" rx="0.868056" fill="#A7B7FF"/>
</g>
</svg>
